<svg width="100%" viewBox="0 0 680 380" xmlns="http://www.w3.org/2000/svg" role="img">
  <title>Research Poster Thumbnail</title>
  <desc>Clickable thumbnail for Disentangling Emotional and Linguistic Cues in AI-Generated Voice by Michael Luo and Jiahe Qin</desc>

  <rect width="680" height="380" rx="10" fill="#FAFAF8" stroke="#D0CFC8" stroke-width="1"/>

  <rect width="680" height="76" rx="10" fill="#182B49"/>
  <rect y="66" width="680" height="12" fill="#182B49"/>
  <rect y="76" width="680" height="4" fill="#C69214"/>

  <text x="340" y="30" font-family="Georgia,serif" font-size="11" font-weight="700" fill="rgba(255,255,255,0.65)" text-anchor="middle" letter-spacing="2.5">HALICIOĞLU DATA SCIENCE INSTITUTE · UC SAN DIEGO</text>
  <text x="340" y="58" font-family="Georgia,serif" font-size="12" fill="#C69214" text-anchor="middle" letter-spacing="1">Undergraduate Research Presentation</text>

  <text x="340" y="118" font-family="Georgia,serif" font-size="18" font-weight="700" fill="#182B49" text-anchor="middle">Disentangling Emotional and Linguistic Cues</text>
  <text x="340" y="141" font-family="Georgia,serif" font-size="18" font-weight="700" fill="#182B49" text-anchor="middle">in AI-Generated Voice</text>

  <line x1="220" y1="155" x2="460" y2="155" stroke="#C69214" stroke-width="1.5"/>

  <text x="340" y="175" font-family="Arial,sans-serif" font-size="12" fill="#555555" text-anchor="middle">Michael Luo · Jiahe Qin · Mentor: Zhishang Luo</text>

  <rect x="125" y="226" width="8" height="32" rx="4" fill="#C69214" opacity="0.75"/>
  <rect x="139" y="208" width="8" height="50" rx="4" fill="#C69214" opacity="0.85"/>
  <rect x="153" y="236" width="8" height="22" rx="4" fill="#C69214" opacity="0.70"/>
  <rect x="167" y="200" width="8" height="58" rx="4" fill="#C69214"/>
  <rect x="181" y="220" width="8" height="38" rx="4" fill="#C69214" opacity="0.80"/>
  <rect x="195" y="210" width="8" height="48" rx="4" fill="#C69214" opacity="0.90"/>
  <rect x="209" y="232" width="8" height="26" rx="4" fill="#C69214" opacity="0.70"/>
  <rect x="223" y="206" width="8" height="52" rx="4" fill="#C69214"/>
  <rect x="237" y="238" width="8" height="20" rx="4" fill="#C69214" opacity="0.65"/>

  <text x="290" y="262" font-family="Arial,sans-serif" font-size="11" font-weight="700" fill="#AAAAAA" text-anchor="middle">vs</text>

  <rect x="330" y="246" width="8" height="12" rx="4" fill="#182B49" opacity="0.45"/>
  <rect x="344" y="242" width="8" height="16" rx="4" fill="#182B49" opacity="0.55"/>
  <rect x="358" y="250" width="8" height="8"  rx="4" fill="#182B49" opacity="0.40"/>
  <rect x="372" y="239" width="8" height="19" rx="4" fill="#182B49" opacity="0.60"/>
  <rect x="386" y="247" width="8" height="11" rx="4" fill="#182B49" opacity="0.45"/>
  <rect x="400" y="243" width="8" height="15" rx="4" fill="#182B49" opacity="0.55"/>
  <rect x="414" y="250" width="8" height="8"  rx="4" fill="#182B49" opacity="0.40"/>
  <rect x="428" y="244" width="8" height="14" rx="4" fill="#182B49" opacity="0.50"/>
  <rect x="442" y="248" width="8" height="10" rx="4" fill="#182B49" opacity="0.45"/>

  <text x="185" y="277" font-family="Arial,sans-serif" font-size="10" fill="#C69214" text-anchor="middle" font-weight="700">EMOTIONAL TONE</text>
  <text x="390" y="277" font-family="Arial,sans-serif" font-size="10" fill="#182B49" text-anchor="middle" font-weight="700">NEUTRAL TONE</text>

  <rect x="60" y="295" width="560" height="34" rx="6" fill="#182B49" opacity="0.05" stroke="#D0CFC8" stroke-width="0.5"/>
  <text x="170" y="317" font-family="Arial,sans-serif" font-size="11" fill="#555555" text-anchor="middle">n = 102 participants</text>
  <line x1="280" y1="300" x2="280" y2="328" stroke="#D0CFC8" stroke-width="0.5"/>
  <text x="340" y="317" font-family="Arial,sans-serif" font-size="11" fill="#555555" text-anchor="middle">XGBoost · 61.5% accuracy</text>
  <line x1="400" y1="300" x2="400" y2="328" stroke="#D0CFC8" stroke-width="0.5"/>
  <text x="510" y="317" font-family="Arial,sans-serif" font-size="11" fill="#555555" text-anchor="middle">7 emotion classes</text>

  <text x="340" y="363" font-family="Arial,sans-serif" font-size="11" fill="#BBBBBB" text-anchor="middle">click to view full poster →</text>
</svg>
